<?xml version="1.0" encoding="utf-8"?>
<!-- Generator: Adobe Illustrator 25.2.0, SVG Export Plug-In . SVG Version: 6.00 Build 0)  -->
<svg version="1.1" id="AsposeCloud" xmlns="http://www.w3.org/2000/svg" xmlns:xlink="http://www.w3.org/1999/xlink"
	 x="0px" y="0px" viewBox="0 0 128 128" style="enable-background:new 0 0 128 128;" xml:space="preserve">
<style type="text/css">
	.st0{fill:none;stroke:#434343;stroke-width:2;stroke-miterlimit:10;}
	.st1{fill:none;stroke:#434343;stroke-miterlimit:10;}
	.st2{fill:#434343;}
	.st3{fill:url(#SVGID_1_);}
	.st4{fill:url(#SVGID_2_);}
	.st5{fill:url(#SVGID_3_);}
	.st6{fill:url(#SVGID_4_);}
	.st7{opacity:0.6;}
	.st8{opacity:0.38;fill:url(#SVGID_5_);}
	.st9{opacity:0.38;fill:url(#SVGID_6_);}
	.st10{opacity:0.38;fill:url(#SVGID_7_);}
	.st11{opacity:0.38;fill:url(#SVGID_8_);}
	.st12{fill:none;}
	.st13{fill:#FFFFFF;stroke:#434343;stroke-width:1.4148;stroke-miterlimit:10;}
</style>
<g>
	<circle class="st0" cx="64" cy="64" r="49.9"/>
	<circle class="st1" cx="64" cy="64" r="45.3"/>
	<circle class="st1" cx="64" cy="64" r="32.6"/>
	<circle class="st2" cx="64" cy="64" r="30.9"/>
</g>
<g>

		<radialGradient id="SVGID_1_" cx="-386.8902" cy="157.9004" r="22.7876" gradientTransform="matrix(0 1 -1 0 227.6934 455.6226)" gradientUnits="userSpaceOnUse">
		<stop  offset="0.1429" style="stop-color:#DFF1FC"/>
		<stop  offset="0.8424" style="stop-color:#3E8CC7"/>
		<stop  offset="1" style="stop-color:#3698CE"/>
	</radialGradient>
	<path class="st3" d="M91.8,70.9C92,69.6,93.1,53.2,79,45.7c-6.6-3.5-15.5-3.4-20.4,1.5C50,56,57.3,65.1,60.1,66c0.1,0,0.1,0,0-0.2
		c-4.3-17.3,25.8-20.4,31.1,4.9C91.4,71.7,91.7,71.7,91.8,70.9z"/>
	<radialGradient id="SVGID_2_" cx="70.5917" cy="73.23" r="16.5438" gradientUnits="userSpaceOnUse">
		<stop  offset="0.1429" style="stop-color:#FFE787"/>
		<stop  offset="0.5636" style="stop-color:#F39A1F"/>
		<stop  offset="0.6403" style="stop-color:#F18E1E"/>
		<stop  offset="0.8718" style="stop-color:#EC6E1B"/>
		<stop  offset="1" style="stop-color:#EA621A"/>
	</radialGradient>
	<path class="st4" d="M57.1,91.8C58.4,92,74.8,93.1,82.3,79c3.5-6.6,3.4-15.5-1.5-20.4C72,50,62.9,57.3,62,60.1c0,0.1,0.1,0.1,0.1,0
		c17.3-4.3,20.4,25.8-4.9,31.1C56.3,91.4,56.3,91.7,57.1,91.8z"/>

		<radialGradient id="SVGID_3_" cx="168.4285" cy="513.8317" r="22.7893" gradientTransform="matrix(0 -1 1 0 -455.623 227.6934)" gradientUnits="userSpaceOnUse">
		<stop  offset="0" style="stop-color:#F8B100"/>
		<stop  offset="0.2319" style="stop-color:#F8B402"/>
		<stop  offset="0.4027" style="stop-color:#F7BD09"/>
		<stop  offset="0.5533" style="stop-color:#F6CD14"/>
		<stop  offset="0.6727" style="stop-color:#F4E021"/>
		<stop  offset="0.7561" style="stop-color:#EAD61C"/>
		<stop  offset="0.897" style="stop-color:#D1BC0D"/>
		<stop  offset="1" style="stop-color:#BAA400"/>
	</radialGradient>
	<path class="st5" d="M36.2,57.1C36,58.4,34.9,74.8,49,82.3c6.6,3.5,15.5,3.4,20.4-1.5C78,72,70.7,62.9,67.9,62c-0.1,0-0.1,0,0,0.1
		c4.3,17.3-25.8,20.4-31.1-4.9C36.6,56.3,36.3,56.3,36.2,57.1z"/>

		<radialGradient id="SVGID_4_" cx="68.7356" cy="58.2073" r="22.7894" gradientTransform="matrix(1 0 0 1 0 -5.000000e-04)" gradientUnits="userSpaceOnUse">
		<stop  offset="0" style="stop-color:#A8C115"/>
		<stop  offset="0.4545" style="stop-color:#A8C711"/>
		<stop  offset="1" style="stop-color:#43902A"/>
	</radialGradient>
	<path class="st6" d="M70.9,36.2C69.6,36,53.2,34.9,45.7,49c-3.5,6.6-3.4,15.5,1.5,20.3C56,78,65.1,70.7,66,67.9c0-0.1,0-0.1-0.1,0
		c-17.3,4.3-20.4-25.8,4.9-31.1C71.7,36.6,71.7,36.3,70.9,36.2z"/>
	<g class="st7">

			<radialGradient id="SVGID_5_" cx="51.0649" cy="-2.8401" r="26.3314" gradientTransform="matrix(1.0987 0 0 1.6216 8.0148 90.3565)" gradientUnits="userSpaceOnUse">
			<stop  offset="0" style="stop-color:#FCE886"/>
			<stop  offset="1" style="stop-color:#FFFFFF"/>
		</radialGradient>
		<path class="st8" d="M64,47.6c-2.4,0-4.7,0.5-6.8,1.3c-6.3,8.2,0.3,16.3,2.9,17.2c0.1,0,0.1,0,0-0.2c-2.6-10.6,7.6-15.8,17.1-12.5
			C74.1,49.8,69.3,47.6,64,47.6z"/>

			<radialGradient id="SVGID_6_" cx="51.0661" cy="-2.838" r="26.3315" gradientTransform="matrix(1.0987 0 0 1.6216 8.0148 90.3565)" gradientUnits="userSpaceOnUse">
			<stop  offset="0" style="stop-color:#FCE886"/>
			<stop  offset="1" style="stop-color:#FFFFFF"/>
		</radialGradient>
		<path class="st9" d="M62,60.1c0,0.1,0.1,0.1,0.1,0c10.4-2.6,15.7,7.3,12.7,16.8c4-3,6.6-7.7,6.6-12.9c0-2-0.4-4-1.1-5.8
			C71.7,50.3,62.9,57.4,62,60.1z"/>

			<radialGradient id="SVGID_7_" cx="51.0665" cy="-2.8397" r="26.3321" gradientTransform="matrix(1.0987 0 0 1.6216 8.0148 90.3565)" gradientUnits="userSpaceOnUse">
			<stop  offset="0" style="stop-color:#FCE886"/>
			<stop  offset="1" style="stop-color:#FFFFFF"/>
		</radialGradient>
		<path class="st10" d="M67.9,62c-0.1,0-0.1,0,0,0.1c2.6,10.6-7.6,15.8-17.1,12.5c3.2,3.5,7.9,5.8,13.2,5.8c2.4,0,4.7-0.5,6.8-1.3
			C77.1,70.9,70.5,62.8,67.9,62z"/>

			<radialGradient id="SVGID_8_" cx="51.0651" cy="-2.84" r="26.3303" gradientTransform="matrix(1.0987 0 0 1.6216 8.0148 90.3565)" gradientUnits="userSpaceOnUse">
			<stop  offset="0" style="stop-color:#FCE886"/>
			<stop  offset="1" style="stop-color:#FFFFFF"/>
		</radialGradient>
		<path class="st11" d="M66,67.9c0-0.1,0-0.1-0.1,0c-10.4,2.6-15.7-7.3-12.7-16.8c-4.1,3-6.6,7.7-6.6,12.9c0,2,0.4,4,1.1,5.8
			C56.3,77.7,65.1,70.6,66,67.9z"/>
	</g>
</g>
<g>
	<circle class="st12" cx="64" cy="64" r="35.5"/>
	<path class="st2" d="M37.3,40.5l-1.6-0.6l-1.6,2l1,1.4l-1,1.3l-4-6.3l1.1-1.4l7.1,2.4L37.3,40.5z M34.5,39.4
		c-1.5-0.6-2.3-0.9-2.5-1c-0.2-0.1-0.3-0.1-0.4-0.2c0.3,0.3,0.9,1.2,1.8,2.6L34.5,39.4z"/>
	<path class="st2" d="M40.6,34.7c0.4,0.5,0.6,1,0.5,1.6c-0.1,0.6-0.4,1.1-1,1.7c-0.6,0.5-1.1,0.8-1.8,1l-0.9-1
		c0.5-0.2,0.9-0.3,1.2-0.5c0.3-0.2,0.6-0.3,0.8-0.5c0.2-0.2,0.4-0.4,0.4-0.6s0-0.4-0.2-0.6c-0.1-0.1-0.2-0.2-0.3-0.2
		c-0.1,0-0.3,0-0.5,0c-0.2,0-0.5,0.1-1,0.3c-0.5,0.1-0.8,0.2-1.1,0.2c-0.3,0-0.6,0-0.8-0.1c-0.3-0.1-0.5-0.3-0.7-0.5
		c-0.4-0.5-0.6-1-0.5-1.5c0.1-0.5,0.4-1.1,0.9-1.6c0.3-0.2,0.6-0.4,0.9-0.6c0.3-0.2,0.6-0.3,1-0.4l0.4,1.2c-0.4,0.1-0.7,0.3-0.9,0.4
		c-0.2,0.1-0.4,0.3-0.6,0.4c-0.2,0.2-0.3,0.4-0.3,0.6s0,0.4,0.2,0.5c0.1,0.1,0.2,0.2,0.3,0.2c0.1,0,0.2,0,0.4,0c0.2,0,0.5-0.1,1-0.3
		c0.7-0.2,1.2-0.3,1.6-0.2C39.9,34.1,40.2,34.3,40.6,34.7z"/>
	<path class="st2" d="M44.1,28.8c0.4,0.6,0.5,1.2,0.4,1.8c-0.2,0.6-0.6,1.1-1.4,1.6l-0.5,0.4l1.4,2.1l-1.2,0.8l-3.8-5.9l1.9-1.2
		c0.7-0.5,1.4-0.7,1.9-0.6C43.2,27.8,43.7,28.2,44.1,28.8z M41.9,31.6l0.4-0.3c0.4-0.3,0.6-0.5,0.7-0.8c0.1-0.3,0-0.6-0.1-0.8
		c-0.2-0.3-0.4-0.5-0.7-0.5c-0.2,0-0.5,0.1-0.9,0.3l-0.6,0.4L41.9,31.6z"/>
	<path class="st2" d="M52.2,26.6c0.4,1.1,0.5,2,0.2,2.8c-0.3,0.8-0.9,1.4-1.9,1.8c-1,0.4-1.9,0.4-2.6,0.1c-0.8-0.4-1.4-1.1-1.8-2.2
		c-0.4-1.1-0.5-2-0.2-2.8c0.3-0.8,0.9-1.4,1.9-1.8c1-0.4,1.9-0.4,2.6-0.1C51.2,24.8,51.8,25.6,52.2,26.6z M47.5,28.6
		c0.3,0.7,0.7,1.2,1.1,1.5c0.4,0.3,0.9,0.3,1.5,0c1.1-0.5,1.3-1.4,0.7-2.9c-0.6-1.5-1.4-2-2.5-1.5c-0.5,0.2-0.9,0.6-1,1.1
		C47.1,27.3,47.2,27.9,47.5,28.6z"/>
	<path class="st2" d="M58.3,26.9c0.1,0.6,0,1.2-0.4,1.6c-0.4,0.5-1,0.8-1.7,0.9c-0.7,0.2-1.4,0.2-2,0l-0.3-1.4
		c0.5,0.1,0.9,0.2,1.3,0.2c0.3,0,0.6,0,0.9-0.1c0.3-0.1,0.6-0.2,0.7-0.3c0.1-0.2,0.2-0.4,0.1-0.6c0-0.1-0.1-0.2-0.2-0.3
		c-0.1-0.1-0.2-0.2-0.4-0.2c-0.2-0.1-0.5-0.2-1-0.3c-0.5-0.1-0.8-0.2-1.1-0.4c-0.2-0.1-0.5-0.3-0.6-0.5c-0.2-0.2-0.3-0.5-0.4-0.8
		c-0.1-0.6,0-1.1,0.3-1.6c0.3-0.4,0.9-0.7,1.6-0.9c0.4-0.1,0.7-0.1,1-0.1c0.3,0,0.7,0.1,1.1,0.1l-0.2,1.2c-0.4-0.1-0.7-0.1-1-0.1
		c-0.3,0-0.5,0-0.7,0.1c-0.3,0.1-0.5,0.2-0.6,0.3c-0.1,0.2-0.2,0.3-0.1,0.5c0,0.1,0.1,0.2,0.2,0.3c0.1,0.1,0.2,0.2,0.3,0.2
		c0.1,0.1,0.5,0.2,1,0.3c0.7,0.2,1.2,0.4,1.5,0.6C58.1,26.1,58.3,26.5,58.3,26.9z"/>
	<path class="st2" d="M63.9,28.4l-4,0.3l-0.5-7l4-0.3l0.1,1.2l-2.6,0.2l0.1,1.5l2.4-0.2l0.1,1.2l-2.4,0.2l0.1,1.8l2.6-0.2L63.9,28.4
		z"/>
	<path class="st2" d="M73.1,24.6c-0.1,0.7-0.4,1.3-1,1.6s-1.2,0.4-2.1,0.3l-0.6-0.1L69,28.8l-1.5-0.2l1.1-6.9l2.2,0.4
		c0.8,0.1,1.5,0.4,1.8,0.9C73.1,23.3,73.2,23.9,73.1,24.6z M69.6,25.2l0.5,0.1c0.5,0.1,0.8,0,1.1-0.1c0.3-0.1,0.4-0.4,0.5-0.7
		c0.1-0.3,0-0.6-0.2-0.8c-0.2-0.2-0.4-0.3-0.8-0.4l-0.7-0.1L69.6,25.2z"/>
	<path class="st2" d="M73.3,29.7l2.2-6.7l1.4,0.5L75.1,29l2.7,0.9L77.4,31L73.3,29.7z"/>
	<path class="st2" d="M86.7,27.9l-2.2,4c-0.2,0.5-0.6,0.8-1,1c-0.4,0.2-0.8,0.3-1.3,0.3c-0.5,0-1-0.2-1.5-0.5
		c-0.8-0.4-1.3-1-1.5-1.6s-0.1-1.3,0.2-2l2.2-4l1.3,0.7l-2,3.8c-0.3,0.5-0.4,0.9-0.3,1.2s0.3,0.6,0.8,0.8c0.4,0.2,0.8,0.3,1.1,0.2
		s0.6-0.4,0.9-0.9l2-3.8L86.7,27.9z"/>
	<path class="st2" d="M89.1,33.6l2.2,1.8L89,38.2c-0.4-0.2-0.8-0.4-1.2-0.6c-0.3-0.2-0.7-0.4-1-0.7c-0.8-0.7-1.2-1.4-1.3-2.3
		c0-0.8,0.3-1.7,1.1-2.6c0.7-0.9,1.5-1.4,2.4-1.4c0.9-0.1,1.8,0.3,2.7,1c0.6,0.5,1,1,1.3,1.7l-1.1,0.6c-0.2-0.5-0.6-1-1-1.3
		c-0.5-0.4-1-0.6-1.6-0.5c-0.6,0.1-1.1,0.4-1.6,1c-0.5,0.6-0.7,1.1-0.7,1.6c0,0.5,0.2,1,0.7,1.3c0.2,0.2,0.5,0.4,0.8,0.5l0.9-1.1
		l-1-0.8L89.1,33.6z"/>
	<path class="st2" d="M89.7,39.5l5.2-4.7l1,1.1l-5.2,4.7L89.7,39.5z"/>
	<path class="st2" d="M95.3,46.9l-1.1-1.6l2.7-5.5l0,0c-0.7,0.6-1.3,1-1.6,1.2l-2.7,1.8l-0.7-1.1l5.8-3.9l1,1.6L96,44.8l0,0
		c0.7-0.5,1.3-0.9,1.6-1.1l2.8-1.8l0.7,1.1L95.3,46.9z"/>
	<path class="st2" d="M91.7,91.7c-0.9-0.7-1.3-1.6-1.4-2.5c0-0.9,0.3-1.8,1.1-2.8l1.3-1.5l5.3,4.6l-1.4,1.7
		c-0.7,0.9-1.6,1.4-2.4,1.4C93.4,92.7,92.6,92.4,91.7,91.7z M92.7,90.5c1.1,1,2.2,1,3-0.1l0.5-0.6l-3.5-3l-0.4,0.5
		C91.4,88.5,91.5,89.5,92.7,90.5z"/>
	<path class="st2" d="M88,90.2l4.6,5.3l-1.1,1l-4.6-5.3L88,90.2z"/>
	<path class="st2" d="M83.4,96.1c-0.4-0.5-0.5-1.1-0.3-1.6c0.2-0.6,0.6-1.1,1.3-1.5c0.6-0.4,1.2-0.7,1.9-0.8l0.8,1.1
		c-0.5,0.1-0.9,0.2-1.2,0.3c-0.3,0.1-0.6,0.3-0.8,0.4c-0.3,0.2-0.4,0.4-0.5,0.6c-0.1,0.2,0,0.4,0.1,0.6c0.1,0.1,0.2,0.2,0.3,0.2
		c0.1,0,0.3,0.1,0.5,0.1c0.2,0,0.5,0,1-0.1c0.5-0.1,0.8-0.1,1.1-0.1c0.3,0,0.5,0.1,0.8,0.2c0.2,0.1,0.5,0.3,0.6,0.6
		c0.4,0.5,0.5,1,0.3,1.6c-0.1,0.5-0.5,1-1.1,1.4c-0.3,0.2-0.6,0.4-0.9,0.5c-0.3,0.1-0.7,0.2-1.1,0.3l-0.3-1.2
		c0.4-0.1,0.7-0.2,0.9-0.3c0.2-0.1,0.5-0.2,0.6-0.3c0.2-0.2,0.4-0.3,0.4-0.5c0-0.2,0-0.4-0.1-0.6c-0.1-0.1-0.2-0.2-0.3-0.2
		c-0.1,0-0.2-0.1-0.4-0.1c-0.2,0-0.5,0-1.1,0.1c-0.7,0.1-1.3,0.1-1.6,0C84,96.8,83.7,96.5,83.4,96.1z"/>
	<path class="st2" d="M81.3,101.6c0.5-0.2,0.8-0.6,0.9-1.1c0.1-0.5,0-1.1-0.3-1.8c-0.7-1.4-1.5-1.9-2.6-1.4
		c-0.4,0.2-0.9,0.6-1.5,1.1l-0.5-1.1c0.4-0.5,0.9-0.9,1.6-1.2c0.9-0.4,1.8-0.5,2.5-0.2c0.8,0.3,1.4,1,1.9,2.1
		c0.3,0.7,0.5,1.3,0.5,1.9c0,0.6-0.2,1.2-0.5,1.6s-0.8,0.9-1.4,1.2c-0.6,0.3-1.3,0.4-2.1,0.4l-0.1-1.3c0.3,0,0.6,0,0.9,0
		C80.8,101.8,81,101.8,81.3,101.6z"/>
	<path class="st2" d="M70.7,102.6c-0.3-1.1-0.2-2.1,0.2-2.8s1.1-1.3,2.2-1.5c1-0.3,1.9-0.2,2.6,0.3c0.7,0.5,1.2,1.3,1.5,2.4
		c0.3,1.1,0.2,2.1-0.2,2.8c-0.4,0.7-1.1,1.3-2.2,1.5c-1,0.3-1.9,0.2-2.6-0.3C71.5,104.5,71,103.7,70.7,102.6z M75.7,101.3
		c-0.2-0.8-0.5-1.3-0.9-1.6s-0.9-0.4-1.4-0.2c-1.1,0.3-1.5,1.2-1.1,2.7c0.4,1.5,1.2,2.1,2.3,1.8c0.6-0.2,1-0.5,1.1-0.9
		C75.9,102.7,75.9,102,75.7,101.3z"/>
	<path class="st2" d="M62.5,99.6l1.9-0.1l3.3,5.2l0,0c-0.1-0.9-0.2-1.6-0.2-2l-0.1-3.3l1.3-0.1l0.3,7l-1.9,0.1l-3.3-5.1l0,0
		c0.1,0.9,0.1,1.6,0.2,1.9l0.1,3.3l-1.3,0.1L62.5,99.6z"/>
	<path class="st2" d="M58.3,99.1l1.5,0.2L59,105l1.9,0.3l-0.2,1.2l-5.3-0.7l0.2-1.2l1.9,0.3L58.3,99.1z"/>
	<path class="st2" d="M55.6,98.5l-1.8,6.8l-1.4-0.4l1.8-6.8L55.6,98.5z"/>
	<path class="st2" d="M46.9,95.3l1.7,0.8l0.7,6.1l0,0c0.3-0.9,0.6-1.5,0.7-1.9l1.3-3l1.2,0.5l-2.8,6.4l-1.7-0.8l-0.7-6l0,0
		c-0.3,0.9-0.6,1.5-0.7,1.8l-1.3,3l-1.2-0.5L46.9,95.3z"/>
	<path class="st2" d="M36.9,96.9l2.7-3.7c0.3-0.4,0.7-0.7,1.1-0.9c0.4-0.2,0.9-0.2,1.3-0.1c0.5,0.1,1,0.3,1.4,0.7
		c0.7,0.5,1.2,1.1,1.3,1.8c0.1,0.7,0,1.3-0.5,2l-2.7,3.7l-1.2-0.9l2.5-3.5c0.3-0.4,0.5-0.8,0.4-1.2c0-0.3-0.2-0.6-0.6-0.9
		c-0.4-0.3-0.8-0.4-1.1-0.3c-0.3,0.1-0.7,0.3-1,0.8l-2.5,3.5L36.9,96.9z"/>
	<path class="st2" d="M37.1,87.3l2.8,2.9l-5,4.9l-2.8-2.9l0.9-0.9l1.8,1.8l1.1-1.1l-1.7-1.7l0.9-0.9l1.7,1.7L38,90l-1.8-1.8
		L37.1,87.3z"/>
	<path class="st2" d="M30.1,83.7c1-0.7,1.9-0.9,2.7-0.7c0.9,0.2,1.7,0.8,2.4,1.8l1.1,1.6l-5.8,4l-1.3-1.8c-0.7-0.9-0.9-1.8-0.8-2.7
		C28.7,85,29.2,84.3,30.1,83.7z M31,84.9c-1.2,0.9-1.5,1.8-0.7,2.9l0.5,0.7l3.8-2.6l-0.4-0.5C33.3,84.2,32.3,84.1,31,84.9z"/>
</g>
<path class="st13" d="M115.5,77.6h-103c-3.7,0-6.8-3.1-6.8-6.8V57.2c0-3.7,3.1-6.8,6.8-6.8h103c3.7,0,6.8,3.1,6.8,6.8v13.6
	C122.3,74.5,119.3,77.6,115.5,77.6z"/>
<g>
	<path class="st2" d="M12.2,57.5H16c3.3,0,4.5,1.2,4.5,3.9v4.9c0,2.2-0.6,4.2-4.3,4.2h-4V57.5z M15.3,68.5h0.6
		c1.2,0,1.4-0.6,1.4-1.6V61c0-1-0.3-1.5-1.4-1.5h-0.6V68.5z"/>
	<path class="st2" d="M25.3,57.5v13h-3.1v-13H25.3z"/>
	<path class="st2" d="M29.7,66.5v0.9c0,0.9,0.3,1.2,1,1.2c0.7,0,0.9-0.6,0.9-1.2c0-1.2-0.3-1.6-1.9-2.7c-1.8-1.2-2.8-2-2.8-3.9
		c0-1.9,0.8-3.6,3.8-3.6c3.3,0,3.7,1.8,3.7,3.3v0.7h-2.9v-0.8c0-0.8-0.2-1.2-0.8-1.2c-0.6,0-0.8,0.4-0.8,1.1c0,0.8,0.2,1.2,1.5,2
		c2.4,1.5,3.2,2.3,3.2,4.5c0,2-0.9,3.7-4.1,3.7c-3.1,0-4-1.5-4-3.4v-0.8H29.7z"/>
	<path class="st2" d="M44,66.3V67c0,1.6-0.4,3.7-4.1,3.7c-2.7,0-3.9-1.2-3.9-3.6v-6.4c0-2.3,1.4-3.4,4-3.4c3.4,0,4,1.8,4,3.5v0.8
		h-3.1v-1.1c0-0.7-0.2-1.1-0.8-1.1c-0.6,0-0.8,0.3-0.8,1.1v6.9c0,0.7,0.1,1.2,0.8,1.2c0.7,0,0.9-0.4,0.9-1.2v-1.1H44z"/>
	<path class="st2" d="M53.8,61v6c0,2.6-1.5,3.7-4.3,3.7c-2.7,0-4.1-1.1-4.1-3.6v-6.1c0-2.5,1.7-3.6,4.2-3.6
		C52.1,57.3,53.8,58.4,53.8,61z M48.5,60.7v6.6c0,0.8,0.3,1.2,1,1.2c0.7,0,1.1-0.4,1.1-1.2v-6.6c0-0.8-0.3-1.2-1.1-1.2
		C48.9,59.5,48.5,59.9,48.5,60.7z"/>
	<path class="st2" d="M55.4,70.5v-13h3.4c0.5,1.6,2.1,7.5,2.3,8h0.1c-0.2-1.7-0.3-4.1-0.3-5.9v-2.1h2.9v13h-3.5
		c-0.3-1.2-2.1-7.9-2.2-8.4h-0.1c0.1,1.5,0.2,4.1,0.2,6.1v2.2H55.4z"/>
	<path class="st2" d="M67.3,59.7h-2.4v-2.2h7.8v2.2h-2.4v10.8h-3.1V59.7z"/>
	<path class="st2" d="M77,57.5v13h-3.1v-13H77z"/>
	<path class="st2" d="M78.9,70.5v-13h3.4c0.5,1.6,2.1,7.5,2.3,8h0.1c-0.2-1.7-0.3-4.1-0.3-5.9v-2.1h2.9v13h-3.5
		c-0.3-1.2-2.1-7.9-2.2-8.4h-0.1c0.1,1.5,0.2,4.1,0.2,6.1v2.2H78.9z"/>
	<path class="st2" d="M92.3,57.5v9.9c0,0.8,0.3,1.2,1,1.2c0.8,0,1-0.5,1-1.2v-9.9h3.2v9.7c0,2.3-1.3,3.4-4.2,3.4
		c-2.8,0-4.1-1.1-4.1-3.5v-9.7H92.3z"/>
	<path class="st2" d="M105.8,64.8h-3.3v3.5h3.9l-0.4,2.2h-6.7v-13h6.6v2.2h-3.5v2.8h3.3V64.8z"/>
	<path class="st2" d="M107.5,57.5h3.8c3.3,0,4.5,1.2,4.5,3.9v4.9c0,2.2-0.6,4.2-4.3,4.2h-4V57.5z M110.6,68.5h0.6
		c1.2,0,1.4-0.6,1.4-1.6V61c0-1-0.3-1.5-1.4-1.5h-0.6V68.5z"/>
</g>
</svg>
